<?xml version="1.0" encoding="utf-8"?>
<!-- Generator: Adobe Illustrator 25.0.0, SVG Export Plug-In . SVG Version: 6.00 Build 0)  -->
<svg version="1.1" id="Layer_1" xmlns="http://www.w3.org/2000/svg" xmlns:xlink="http://www.w3.org/1999/xlink" x="0px" y="0px"
	 viewBox="0 0 566.93 117.14" style="enable-background:new 0 0 566.93 117.14;" xml:space="preserve">
<style type="text/css">
	.st0{fill:none;}
	.st1{fill:#46474B;}
	.st2{fill:#FFFFFF;}
	.st3{fill:#00A2E5;}
</style>
<g>
	<path class="st0" d="M297.37,42.84c-10.96,0-19.22,8.21-19.22,19.09c0,10.81,8.26,18.96,19.22,18.96
		c10.53,0,19.09-8.51,19.09-18.96C316.46,51.22,308.07,42.84,297.37,42.84z"/>
	<path class="st0" d="M133.61,42.84c-10.53,0-19.09,8.5-19.09,18.96c0,10.7,8.39,19.09,19.09,19.09c10.88,0,19.09-8.21,19.09-19.09
		C152.7,50.99,144.5,42.84,133.61,42.84z"/>
	<path class="st0" d="M213.05,42.84c-10.53,0-19.09,8.5-19.09,18.96c0,10.7,8.39,19.09,19.09,19.09c10.88,0,19.09-8.21,19.09-19.09
		C232.14,50.99,223.94,42.84,213.05,42.84z"/>
	<polygon class="st1" points="66.03,60.34 53.12,27.05 48.92,37.77 31.9,37.77 46.43,1.32 60.07,1.32 60.21,1.66 97.26,94.61 
		79.36,94.61 72.25,76.17 33.99,76.17 26.75,94.61 9.25,94.61 22.91,60.33 	"/>
	<path class="st1" d="M22.95,37.61"/>
	<path class="st1" d="M152.7,39.09c-4.89-7.3-12.72-11.3-22.25-11.3c-17.29,0-31.36,15.25-31.36,34c0,18.82,14.07,34.13,31.36,34.13
		c9.53,0,17.36-4,22.25-11.29v9.98h15.83V1.32H152.7V39.09z M133.61,80.89c-10.7,0-19.09-8.39-19.09-19.09
		c0-10.45,8.56-18.96,19.09-18.96c10.88,0,19.09,8.15,19.09,18.96C152.7,72.68,144.5,80.89,133.61,80.89z"/>
	<path class="st1" d="M232.14,39.09c-4.89-7.3-12.72-11.3-22.25-11.3c-17.29,0-31.36,15.25-31.36,34
		c0,18.82,14.07,34.13,31.36,34.13c9.53,0,17.36-3.99,22.25-11.29v9.98h15.83v-65.5h-15.83V39.09z M213.05,80.89
		c-10.7,0-19.09-8.39-19.09-19.09c0-10.45,8.56-18.96,19.09-18.96c10.88,0,19.09,8.15,19.09,18.96
		C232.14,72.68,223.94,80.89,213.05,80.89z"/>
	<path class="st1" d="M300.53,27.8c-9.6,0-17.47,4.08-22.38,11.53V29.11h-15.7v88.03h15.7V84.4c4.91,7.45,12.78,11.53,22.38,11.53
		c17.51,0,31.23-14.93,31.23-34C331.76,43.11,317.75,27.8,300.53,27.8z M297.37,80.89c-10.96,0-19.22-8.15-19.22-18.96
		c0-10.88,8.26-19.09,19.22-19.09c10.7,0,19.09,8.39,19.09,19.09C316.46,72.38,307.89,80.89,297.37,80.89z"/>
	<polygon class="st1" points="363.78,44.16 378.27,44.16 378.27,29.11 363.78,29.11 363.78,11.99 348.08,11.99 348.08,29.11 
		333.59,29.11 333.59,44.16 348.08,44.16 348.08,78.88 348.06,78.88 348.06,94.61 385.55,94.61 385.55,78.88 363.78,78.88 	"/>
	<rect x="421.67" y="1.32" class="st1" width="16.49" height="93.29"/>
	<path class="st2" d="M544.27,35.96h0.04v-0.04h-0.16c0.04,0.18,0.08,0.35,0.12,0.53V35.96z"/>
	<path class="st2" d="M544.32,36.65c-0.01-0.07-0.03-0.13-0.04-0.2v22.2h0.04V36.65z"/>
	<rect x="497.52" y="95.87" class="st1" width="46.76" height="15.68"/>
	<g>
		<path class="st1" d="M523.33,66.37c-4.4,6.11-9.65,9.16-9.72,9.2c-4.52,2.79-9.84,4.27-15.39,4.27c-17.34,0-30.42-13.76-30.42-32
			c0-18.09,13.08-31.74,30.42-31.74c13.26,0,24,7.99,28.33,19.82c0,0,0.25,0.77,0.43,1.56h17.03c0,0-0.01-0.85-0.1-1.71
			c-0.08-0.82-0.23-1.62-0.39-2.24c-0.01-0.05-0.03-0.11-0.04-0.16l0,0C537.69,13.61,520.15,0,498.22,0
			c-27.04,0-47.44,20.56-47.44,47.83c0,27.42,20.39,48.1,47.44,48.1c9.05,0,17.68-2.41,25.04-6.94l0.02-0.02
			c1.84-1.04,8.59-5.19,13.81-13.03l0,0c3.26-4.75,5.58-10.05,6.96-15.74H526.4C525.59,62.37,524.58,64.44,523.33,66.37z"/>
		<polygon class="st1" points="544.05,60.2 544.05,60.19 544.05,60.2 		"/>
	</g>
	<rect x="544" y="37.48" class="st3" width="22.87" height="22.77"/>
	<rect x="0.04" y="37.56" class="st3" width="22.87" height="22.77"/>
</g>
</svg>
